<?xml version="1.0" standalone="no"?>
<!DOCTYPE svg PUBLIC "-//W3C//DTD SVG 20010904//EN"
 "http://www.w3.org/TR/2001/REC-SVG-20010904/DTD/svg10.dtd">
<svg version="1.0" xmlns="http://www.w3.org/2000/svg"
 width="400.000000pt" height="100.000000pt" viewBox="0 0 400.000000 100.000000"
 preserveAspectRatio="xMidYMid meet">

<g transform="translate(0.000000,100.000000) scale(0.100000,-0.100000)"
fill="#000000" stroke="none">
<path d="M2960 686 l0 -146 34 0 c34 0 35 1 38 42 l3 42 29 -42 c26 -37 33
-42 69 -42 l40 0 -27 33 c-64 79 -63 72 -17 127 22 27 41 51 41 54 0 3 -17 6
-39 6 -34 0 -42 -5 -67 -42 l-29 -43 -5 75 -5 75 -32 3 -33 3 0 -145z"/>
<path d="M1160 675 l0 -135 29 0 c28 0 30 2 33 48 l3 47 47 5 c63 8 88 32 88
86 0 64 -31 84 -126 84 l-74 0 0 -135z m131 69 c19 -23 -1 -48 -40 -52 -30 -3
-31 -2 -31 32 0 33 2 36 29 36 16 0 34 -7 42 -16z"/>
<path d="M2550 785 c0 -14 -4 -25 -10 -25 -5 0 -10 -13 -10 -30 0 -16 5 -30
10 -30 6 0 10 -25 10 -55 0 -46 4 -60 25 -80 15 -16 36 -25 55 -25 27 0 30 3
30 30 0 23 -4 30 -20 30 -17 0 -20 7 -20 50 0 43 3 50 20 50 16 0 20 7 20 30
0 23 -4 30 -20 30 -15 0 -20 7 -20 25 0 22 -4 25 -35 25 -31 0 -35 -3 -35 -25z"/>
<path d="M1445 748 c-38 -20 -55 -51 -55 -101 0 -40 5 -53 29 -78 24 -23 38
-29 74 -29 47 0 97 29 97 56 0 16 -65 20 -75 4 -11 -17 -44 -11 -55 10 -10 19
-8 20 65 20 73 0 75 1 75 25 0 78 -87 131 -155 93z m66 -48 c31 -17 22 -30
-23 -30 -40 0 -41 0 -23 20 21 23 20 23 46 10z"/>
<path d="M1640 650 l0 -110 30 0 c29 0 30 1 30 48 0 72 9 92 41 99 25 5 29 10
29 39 0 38 -7 41 -36 19 -25 -19 -34 -19 -34 0 0 10 -10 15 -30 15 l-30 0 0
-110z"/>
<path d="M1807 753 c-4 -3 -7 -75 -7 -160 l0 -153 35 0 35 0 0 60 c0 57 1 60
19 50 47 -24 102 -7 126 40 30 58 13 130 -36 156 -36 18 -59 18 -86 -1 -19
-13 -22 -13 -27 0 -5 15 -47 21 -59 8z m142 -67 c18 -21 9 -66 -14 -82 -18
-12 -24 -11 -43 2 -24 17 -30 62 -10 82 16 16 53 15 67 -2z"/>
<path d="M2067 753 c-11 -10 -8 -127 4 -162 17 -48 72 -66 120 -41 13 7 19 7
19 0 0 -5 16 -10 35 -10 l36 0 -3 108 -3 107 -30 0 -30 0 -3 -72 c-2 -60 -6
-75 -22 -83 -14 -8 -26 -7 -40 0 -17 9 -20 21 -20 85 l0 75 -28 0 c-16 0 -32
-3 -35 -7z"/>
<path d="M2360 747 c-13 -7 -29 -25 -34 -40 -12 -34 10 -60 68 -80 22 -7 42
-19 44 -25 5 -15 -44 -16 -53 -2 -10 16 -65 12 -65 -4 0 -27 50 -56 96 -56
102 0 116 106 16 126 -41 8 -61 31 -37 40 10 4 26 2 36 -4 10 -7 31 -12 45
-12 20 0 25 4 20 16 -3 9 -6 17 -6 20 0 2 -13 10 -30 19 -35 18 -67 19 -100 2z"/>
<path d="M2744 750 c-59 -23 -74 -124 -28 -179 20 -24 34 -31 63 -31 20 0 43
6 50 13 11 10 14 10 18 0 3 -7 18 -13 34 -13 l29 0 0 110 0 110 -30 0 c-20 0
-30 -5 -30 -16 0 -14 -2 -14 -22 0 -25 18 -52 19 -84 6z m90 -66 c9 -8 16 -24
16 -35 0 -20 -33 -59 -50 -59 -16 0 -50 38 -50 57 0 22 29 53 51 53 10 0 25
-7 33 -16z"/>
<path d="M3244 750 c-59 -23 -74 -124 -28 -179 20 -24 34 -31 63 -31 20 0 43
6 50 13 11 10 14 10 18 0 3 -7 18 -13 34 -13 l29 0 0 110 0 110 -30 0 c-20 0
-30 -5 -30 -16 0 -14 -2 -14 -22 0 -25 18 -52 19 -84 6z m90 -66 c25 -25 18
-67 -14 -84 -43 -23 -83 33 -55 76 18 28 47 31 69 8z"/>
<path d="M3499 745 c-57 -31 -65 -139 -14 -182 28 -24 74 -30 106 -13 13 7 19
7 19 0 0 -5 16 -10 35 -10 l36 0 -3 108 -3 107 -28 3 c-17 2 -29 -2 -33 -12
-5 -14 -8 -14 -27 -1 -26 19 -54 18 -88 0z m100 -59 c18 -21 9 -66 -14 -82
-18 -12 -24 -11 -43 2 -24 17 -30 62 -10 82 16 16 53 15 67 -2z"/>
<path d="M3730 650 l0 -110 30 0 30 0 0 69 c0 75 12 95 52 89 21 -3 23 -8 26
-80 l3 -78 34 0 35 0 0 75 c0 84 -12 118 -47 134 -33 15 -54 14 -81 -5 -20
-14 -22 -14 -22 0 0 11 -10 16 -30 16 l-30 0 0 -110z"/>
<path d="M162 561 c-18 -186 -24 -169 56 -159 37 5 96 7 132 4 44 -3 55 -2 35
3 -16 5 -69 9 -117 10 -48 0 -89 4 -91 9 -2 4 1 54 7 112 9 87 14 105 29 108
27 5 20 29 -11 34 l-29 4 -11 -125z"/>
<path d="M983 682 c-25 -4 -32 -32 -9 -32 19 0 23 -17 31 -132 l7 -98 -94 -1
c-51 -1 -106 -5 -123 -9 -19 -5 -2 -6 45 -3 41 2 103 0 138 -5 l64 -9 -6 56
c-3 31 -8 95 -12 144 -4 48 -10 89 -13 90 -3 2 -16 1 -28 -1z"/>
<path d="M86 588 c-9 -58 -26 -261 -22 -265 2 -3 28 0 58 6 98 18 221 23 303
13 89 -12 106 -9 48 8 -56 16 -227 24 -306 13 -37 -5 -68 -8 -70 -7 -4 4 10
142 18 192 4 19 12 32 20 32 24 0 17 27 -7 34 -35 9 -37 8 -42 -26z"/>
<path d="M1058 613 c-21 -5 -24 -33 -4 -33 16 0 22 -30 32 -148 l7 -82 -34 7
c-19 5 -97 8 -174 7 -107 0 -149 -5 -180 -17 -23 -10 -30 -15 -15 -13 107 19
270 15 405 -10 l31 -5 -12 138 c-7 76 -13 144 -13 151 -1 12 -11 13 -43 5z"/>
<path d="M3816 394 c-34 -34 -10 -60 26 -28 16 15 18 15 24 1 7 -20 -11 -53
-41 -73 -14 -9 -25 -25 -25 -35 0 -16 8 -19 55 -19 42 0 55 3 55 15 0 9 -9 15
-25 15 -14 0 -25 3 -25 6 0 3 11 19 25 36 30 35 32 59 7 81 -23 21 -56 22 -76
1z"/>
<path d="M1206 384 c-28 -27 -19 -52 25 -75 31 -15 38 -24 30 -32 -8 -8 -14
-8 -23 1 -14 14 -48 16 -48 3 0 -36 75 -54 104 -25 27 27 19 52 -24 74 -39 20
-53 40 -27 40 7 0 18 -5 24 -11 7 -7 19 -9 29 -5 16 6 16 8 -1 26 -22 24 -68
26 -89 4z"/>
<path d="M1330 320 c0 -73 2 -80 20 -80 17 0 20 7 21 43 l0 42 19 -42 c24 -53
43 -54 63 -5 l16 37 0 -37 c1 -31 5 -38 21 -38 18 0 20 7 20 80 0 74 -2 80
-20 80 -15 0 -27 -14 -44 -52 l-24 -53 -22 53 c-18 42 -27 52 -46 52 -23 0
-24 -3 -24 -80z"/>
<path d="M1579 373 c-6 -15 -19 -52 -30 -80 -18 -52 -18 -53 2 -53 11 0 22 7
25 15 4 8 18 15 34 15 16 0 30 -7 34 -15 3 -8 14 -15 26 -15 19 0 19 2 -8 78
-22 61 -33 78 -50 80 -16 3 -25 -4 -33 -25z m44 -53 c4 -15 0 -20 -13 -20 -13
0 -17 5 -13 20 3 11 9 20 13 20 4 0 10 -9 13 -20z"/>
<path d="M1760 320 c0 -64 3 -80 15 -80 11 0 15 11 15 42 0 45 9 44 26 -5 16
-48 39 -46 63 5 l19 43 1 -42 c1 -36 4 -43 21 -43 19 0 21 5 18 78 -3 74 -4
77 -27 77 -20 0 -27 -9 -44 -54 l-21 -55 -14 35 c-8 19 -18 44 -23 57 -5 13
-17 22 -29 22 -18 0 -20 -6 -20 -80z"/>
<path d="M1962 334 c5 -73 20 -94 68 -94 48 0 63 21 68 94 4 62 3 66 -17 66
-19 0 -21 -6 -21 -54 0 -35 -5 -58 -15 -66 -26 -22 -45 5 -45 66 0 48 -2 54
-21 54 -20 0 -21 -4 -17 -66z"/>
<path d="M2120 320 c0 -72 2 -80 19 -80 15 0 21 8 23 33 2 27 8 33 31 35 25 3
27 1 27 -32 0 -29 4 -36 20 -36 18 0 20 7 20 80 0 73 -2 80 -20 80 -16 0 -20
-7 -20 -30 0 -27 -3 -30 -30 -30 -27 0 -30 3 -30 30 0 23 -4 30 -20 30 -18 0
-20 -7 -20 -80z"/>
<path d="M2335 391 c-3 -6 -14 -34 -24 -63 -11 -29 -22 -61 -26 -70 -5 -14 -2
-18 13 -18 11 0 22 7 26 15 3 9 18 15 35 15 16 0 31 -6 35 -15 3 -8 14 -15 25
-15 19 0 18 3 -9 78 -21 58 -33 78 -48 80 -11 2 -23 -2 -27 -7z m38 -71 c4
-15 0 -20 -15 -20 -14 0 -18 5 -14 16 3 9 6 20 6 25 0 17 17 1 23 -21z"/>
<path d="M2460 320 c0 -73 2 -80 20 -80 16 0 20 7 21 38 l0 37 16 -37 c20 -49
39 -48 63 5 l19 42 0 -42 c1 -36 4 -43 21 -43 18 0 20 7 20 80 0 77 -1 80 -24
80 -19 0 -28 -10 -46 -52 l-22 -53 -24 53 c-17 38 -29 52 -44 52 -18 0 -20 -6
-20 -80z"/>
<path d="M2660 320 c0 -73 2 -80 20 -80 17 0 20 7 21 43 l1 42 19 -43 c24 -51
47 -53 63 -5 17 49 26 50 26 5 0 -31 4 -42 15 -42 12 0 15 16 15 81 0 77 -1
80 -21 77 -16 -2 -27 -18 -42 -57 l-21 -55 -14 35 c-8 19 -18 44 -23 57 -6 15
-17 22 -34 22 -25 0 -25 -1 -25 -80z"/>
<path d="M2911 378 c-56 -152 -53 -138 -31 -138 12 0 23 7 26 15 4 9 19 15 35
15 17 0 32 -6 35 -15 5 -12 44 -23 44 -12 0 1 -13 36 -28 77 -22 59 -32 76
-50 78 -16 2 -24 -3 -31 -20z m42 -58 c4 -15 0 -20 -13 -20 -13 0 -17 5 -13
20 3 11 9 20 13 20 4 0 10 -9 13 -20z"/>
<path d="M3040 320 l0 -80 45 0 c35 0 52 6 70 25 56 55 15 135 -70 135 l-45 0
0 -80z m81 40 c39 -21 16 -90 -30 -90 -6 0 -11 21 -11 50 0 52 7 58 41 40z"/>
<path d="M3200 320 c0 -73 2 -80 20 -80 18 0 20 7 20 80 0 73 -2 80 -20 80
-18 0 -20 -7 -20 -80z"/>
<path d="M3285 350 c14 -27 25 -63 25 -80 0 -23 4 -30 20 -30 15 0 20 7 20 25
0 14 11 48 25 75 30 59 30 60 7 60 -11 0 -25 -13 -34 -32 l-15 -33 -17 33
c-10 20 -24 32 -36 32 -20 0 -19 -2 5 -50z"/>
<path d="M3465 388 c-2 -7 -15 -43 -28 -80 -24 -65 -24 -68 -5 -68 10 0 21 7
24 15 4 9 19 15 35 15 17 0 32 -6 35 -15 4 -8 15 -15 26 -15 15 0 18 4 13 18
-3 9 -16 45 -28 80 -18 52 -26 62 -45 62 -12 0 -25 -6 -27 -12z m41 -85 c-2
-3 -11 -3 -19 -1 -11 2 -12 9 -5 28 l10 25 9 -24 c5 -13 7 -26 5 -28z"/>
<path d="M3590 320 c0 -73 2 -80 20 -80 16 0 20 7 20 36 0 33 2 35 28 32 22
-2 28 -8 30 -35 2 -25 8 -33 23 -33 17 0 19 8 19 80 0 73 -2 80 -20 80 -16 0
-20 -7 -20 -30 0 -27 -3 -30 -30 -30 -27 0 -30 3 -30 30 0 23 -4 30 -20 30
-18 0 -20 -7 -20 -80z"/>
</g>
</svg>
